# xmcd CD database file
#
# Track frame offsets:
#	150
#	22727
#	44282
#	56342
#	74520
#	94592
#	115567
#	136877
#	157105
#	175492
#	188035
#	206660
#
# Disc length: 3033 seconds
#
# Revision: 2
# Processed by: cddbd v1.5.2PL0 Copyright (c) Steve Scherf et al.
# Submitted via: CDex 1.70beta2
#
DISCID=9d0bd70c
DTITLE=Aaron Neville - CD2 Gospel Roots (www.gerth.de)
DYEAR=2005
DGENRE=Christian Rock
TTITLE0=Let Go
TTITLE1=Banks Of The River Jordan
TTITLE2=Any Day Now
TTITLE3=Jesus Is A Friend Of Mine
TTITLE4=Jesus, Jesus, Jesus
TTITLE5=Jesus Loves Me
TTITLE6=Singing You A Prayer
TTITLE7=What Would Jesus Do?
TTITLE8=Going Home
TTITLE9=Were You There
TTITLE10=I Shall Be Released
TTITLE11=Amazing Grace
EXTD=www.gerth.de YEAR: 2005
EXTT0=
EXTT1=
EXTT2=
EXTT3=
EXTT4=
EXTT5=
EXTT6=
EXTT7=
EXTT8=
EXTT9=
EXTT10=
EXTT11=
PLAYORDER=
